<svg width="174" height="76" viewBox="0 0 174 76" fill="none" xmlns="http://www.w3.org/2000/svg">
<rect width="174" height="76" fill="#971212"/>
<path d="M50.9456 45.88C50.9723 45.72 50.9723 45.56 50.9456 45.4C50.919 45.24 50.9323 45.0667 50.9856 44.88C51.0123 44.8267 51.0256 44.7333 51.0256 44.6C51.0523 44.4667 51.0523 44.36 51.0256 44.28L50.9056 43.04C50.879 42.8267 50.879 42.6133 50.9056 42.4C50.9323 42.16 50.9456 41.92 50.9456 41.68C50.919 41.5733 50.9056 41.48 50.9056 41.4C50.9323 41.2933 50.9456 41.1867 50.9456 41.08C50.919 40.7867 50.9323 40.48 50.9856 40.16C51.0656 39.84 51.079 39.5333 51.0256 39.24C51.0256 39.2133 51.0256 39.1467 51.0256 39.04C51.0256 38.9333 51.0256 38.8267 51.0256 38.72C51.0256 38.5867 51.0256 38.4667 51.0256 38.36C51.0523 38.2533 51.0656 38.1867 51.0656 38.16C51.0923 37.6533 51.0923 37.12 51.0656 36.56C51.0656 35.9467 51.0656 35.4 51.0656 34.92C51.0656 34.4133 51.0923 33.9867 51.1456 33.64C51.1723 33.5067 51.1856 33.3467 51.1856 33.16C51.1856 32.9467 51.1856 32.7333 51.1856 32.52C51.159 32.2267 51.1323 31.9067 51.1056 31.56C51.1056 31.2133 51.1056 30.8667 51.1056 30.52C51.1056 29.9067 51.0923 29.3733 51.0656 28.92C51.0656 28.44 51.0523 27.8933 51.0256 27.28C51.0256 27.0667 51.0123 26.8667 50.9856 26.68C50.959 26.4667 50.959 26.2533 50.9856 26.04C50.9856 25.9867 50.9856 25.8533 50.9856 25.64C50.9856 25.4267 50.999 25.2933 51.0256 25.24C51.0256 25.2133 51.039 25.1867 51.0656 25.16C51.1456 25.08 51.2123 25.04 51.2656 25.04H54.1456C54.519 25.04 54.8923 25.04 55.2656 25.04C55.6656 25.04 56.0256 25.0533 56.3456 25.08C56.639 25.1067 56.9456 25.1733 57.2656 25.28C57.6123 25.3867 57.8923 25.48 58.1056 25.56C58.799 25.8 59.279 25.9867 59.5456 26.12C59.839 26.2533 60.119 26.4267 60.3856 26.64C60.6256 26.8267 60.879 27 61.1456 27.16C61.4123 27.32 61.679 27.5067 61.9456 27.72C62.2123 27.9067 62.4656 28.1467 62.7056 28.44C62.9723 28.7067 63.2123 29.0533 63.4256 29.48C63.5856 29.8 63.7723 30.1333 63.9856 30.48C64.2256 30.8267 64.3323 31.1867 64.3056 31.56C64.439 31.96 64.5056 32.3067 64.5056 32.6C64.5323 32.8933 64.6123 33.16 64.7456 33.4C64.879 33.9867 64.9456 34.6 64.9456 35.24C64.9456 35.88 64.879 36.4667 64.7456 37C64.7723 37.3733 64.7323 37.7467 64.6256 38.12C64.5456 38.4933 64.4923 38.8667 64.4656 39.24C64.439 39.56 64.399 39.8133 64.3456 40C64.319 40.1867 64.2656 40.3467 64.1856 40.48C64.1323 40.6133 64.0656 40.7467 63.9856 40.88C63.9323 41.0133 63.8656 41.1867 63.7856 41.4C63.759 41.48 63.6923 41.6133 63.5856 41.8C63.479 41.96 63.359 42.1333 63.2256 42.32C63.119 42.5067 62.999 42.6933 62.8656 42.88C62.759 43.04 62.6923 43.16 62.6656 43.24C62.5056 43.6933 62.2923 44.0267 62.0256 44.24C61.7856 44.4267 61.4656 44.7333 61.0656 45.16C60.9856 45.24 60.8523 45.3733 60.6656 45.56C60.5056 45.72 60.319 45.8933 60.1056 46.08C59.919 46.2667 59.7323 46.44 59.5456 46.6C59.359 46.7333 59.2123 46.84 59.1056 46.92C58.999 46.9733 58.8123 47.08 58.5456 47.24C58.3056 47.3733 58.039 47.52 57.7456 47.68C57.4523 47.84 57.1723 47.9867 56.9056 48.12C56.639 48.2533 56.4656 48.32 56.3856 48.32C56.119 48.3467 55.7723 48.3733 55.3456 48.4C54.919 48.4267 54.479 48.4533 54.0256 48.48C53.5723 48.5067 53.1323 48.52 52.7056 48.52C52.279 48.5467 51.9323 48.56 51.6656 48.56H51.2256C51.1456 48.5067 51.0923 48.4533 51.0656 48.4C51.039 48.3467 51.0123 48.2933 50.9856 48.24C50.959 48.1867 50.9456 48.1467 50.9456 48.12V45.88ZM53.9456 40.48C53.919 41.12 53.9056 41.8667 53.9056 42.72C53.9056 43.5733 53.919 44.32 53.9456 44.96C54.719 44.9067 55.359 44.7867 55.8656 44.6C56.3723 44.3867 56.9056 44.0667 57.4656 43.64C57.839 43.3733 58.0923 43.0933 58.2256 42.8C58.3856 42.48 58.5323 42.16 58.6656 41.84C58.799 41.6 58.9056 41.32 58.9856 41C59.0923 40.68 59.199 40.3733 59.3056 40.08C59.359 39.92 59.4256 39.6933 59.5056 39.4C59.6123 39.1067 59.6656 38.8533 59.6656 38.64C59.6656 38.5067 59.6923 38.2533 59.7456 37.88C59.8256 37.48 59.8523 37.2133 59.8256 37.08V36.36C59.8256 35.88 59.839 35.36 59.8656 34.8C59.919 34.24 59.9056 33.5467 59.8256 32.72V32.48C59.7723 31.7867 59.5856 31.2133 59.2656 30.76C58.9456 30.3067 58.559 29.8133 58.1056 29.28C57.8923 29.0133 57.639 28.8133 57.3456 28.68C57.079 28.5467 56.599 28.36 55.9056 28.12C55.6923 28.04 55.399 27.9867 55.0256 27.96C54.6523 27.9067 54.319 27.8667 54.0256 27.84C53.9723 27.9467 53.9456 28.0133 53.9456 28.04V28.12V28.44C53.8923 28.7333 53.8656 29.1067 53.8656 29.56C53.8923 29.9867 53.9056 30.3867 53.9056 30.76C53.9056 31.2133 53.919 31.7333 53.9456 32.32C53.9723 32.9067 53.959 33.5067 53.9056 34.12C53.9056 34.2533 53.8923 34.4 53.8656 34.56C53.8656 34.72 53.8656 34.8667 53.8656 35C53.8923 35.3467 53.8923 35.6933 53.8656 36.04C53.839 36.3867 53.8656 36.7467 53.9456 37.12C53.8923 37.68 53.879 38.24 53.9056 38.8C53.959 39.36 53.9723 39.92 53.9456 40.48ZM80.0903 40.32C80.0903 40.4533 80.0236 40.5867 79.8903 40.72C79.8103 40.8 79.6903 40.8533 79.5303 40.88C79.3703 40.9067 79.2236 40.92 79.0903 40.92C78.9036 40.9733 78.677 41 78.4103 41C78.1436 41 77.917 41 77.7303 41C77.357 41 77.077 41.0133 76.8903 41.04C76.7036 41.04 76.397 41.0667 75.9703 41.12L73.5703 41.32V41.8C73.5703 42.0933 73.6103 42.3867 73.6903 42.68C73.7703 42.9467 73.917 43.2267 74.1303 43.52C74.2636 43.7333 74.4236 43.9333 74.6103 44.12C74.797 44.3067 74.9836 44.4267 75.1703 44.48C75.3303 44.5333 75.477 44.5867 75.6103 44.64C75.7436 44.6933 75.8636 44.7467 75.9703 44.8C76.1036 44.8267 76.2236 44.8267 76.3303 44.8C77.0503 44.8 77.5703 44.72 77.8903 44.56C78.237 44.4 78.6503 44.2 79.1303 43.96C79.237 43.96 79.3436 43.9067 79.4503 43.8C79.5836 43.6933 79.677 43.6267 79.7303 43.6C79.8636 43.5467 80.0503 43.4133 80.2903 43.2C80.557 42.9867 80.757 42.8533 80.8903 42.8C80.9703 42.8533 80.997 43.04 80.9703 43.36C80.9436 43.6533 80.957 43.9333 81.0103 44.2V44.64V45.44C80.877 45.6 80.7703 45.72 80.6903 45.8C80.637 45.8533 80.5836 45.9067 80.5303 45.96C80.5036 46.0133 80.4503 46.08 80.3703 46.16C80.2903 46.24 80.1703 46.36 80.0103 46.52C79.5303 47 79.0236 47.32 78.4903 47.48C78.197 47.64 77.877 47.76 77.5303 47.84C77.1836 47.8933 76.9036 47.96 76.6903 48.04C76.557 48.0667 76.437 48.08 76.3303 48.08C76.2236 48.1067 76.117 48.12 76.0103 48.12H75.6903C75.1836 48.12 74.6903 48.1067 74.2103 48.08C73.7303 48.08 73.2236 47.9467 72.6903 47.68C72.5036 47.7067 72.237 47.6533 71.8903 47.52C71.5703 47.3867 71.357 47.2533 71.2503 47.12C70.957 46.96 70.6903 46.76 70.4503 46.52C70.237 46.28 69.997 46.0667 69.7303 45.88C69.357 45.6133 69.0903 45.3333 68.9303 45.04C68.7703 44.7467 68.6236 44.44 68.4903 44.12C68.357 43.88 68.237 43.6133 68.1303 43.32C68.0236 43.0267 67.917 42.7333 67.8103 42.44C67.8103 42.1467 67.797 41.8667 67.7703 41.6C67.7703 41.3333 67.7703 41.0667 67.7703 40.8V39.32C67.7703 38.84 67.8636 38.2667 68.0503 37.6C68.2636 36.9333 68.517 36.36 68.8103 35.88C68.8903 35.7733 68.9836 35.6667 69.0903 35.56C69.1703 35.4533 69.2636 35.3467 69.3703 35.24C69.5036 35.1333 69.637 35.0133 69.7703 34.88C69.8503 34.8533 69.9303 34.8133 70.0103 34.76C70.117 34.7067 70.2636 34.6267 70.4503 34.52C70.5303 34.4667 70.6236 34.3733 70.7303 34.24C70.8636 34.1067 71.037 34.0133 71.2503 33.96C71.5436 33.8533 71.8236 33.7467 72.0903 33.64C72.357 33.5067 72.557 33.44 72.6903 33.44C72.877 33.44 73.2103 33.4533 73.6903 33.48C74.197 33.5067 74.677 33.5333 75.1303 33.56C75.3703 33.5867 75.5703 33.6267 75.7303 33.68C75.8903 33.7333 76.0103 33.76 76.0903 33.76C76.3036 33.7867 76.477 33.8133 76.6103 33.84C76.7703 33.8667 76.9303 33.9067 77.0903 33.96C77.5703 34.12 77.917 34.2933 78.1303 34.48C78.3703 34.64 78.5703 34.8133 78.7303 35C78.837 35.1333 78.9303 35.2933 79.0103 35.48C79.117 35.64 79.2236 35.7867 79.3303 35.92C79.4636 36.08 79.5836 36.3067 79.6903 36.6C79.8236 36.8667 79.917 37.1333 79.9703 37.4C80.0236 37.6133 80.0636 37.8933 80.0903 38.24C80.117 38.5867 80.1303 38.8933 80.1303 39.16C80.1303 39.4267 80.117 39.6267 80.0903 39.76C80.0903 39.8933 80.0903 40.08 80.0903 40.32ZM76.6503 38C76.6503 37.9467 76.6503 37.8533 76.6503 37.72C76.6503 37.56 76.6236 37.4533 76.5703 37.4C76.357 37.0533 76.0503 36.8533 75.6503 36.8C75.277 36.72 74.9436 36.7067 74.6503 36.76C74.4636 36.8133 74.3436 36.88 74.2903 36.96C74.237 37.04 74.157 37.16 74.0503 37.32C73.997 37.3733 73.957 37.4267 73.9303 37.48C73.9036 37.5333 73.8636 37.5867 73.8103 37.64C73.757 37.6933 73.717 37.7733 73.6903 37.88C73.6903 37.96 73.677 38.04 73.6503 38.12C73.597 38.2533 73.5703 38.3467 73.5703 38.4C73.5703 38.4533 73.597 38.5867 73.6503 38.8C73.757 38.8533 73.957 38.9067 74.2503 38.96C74.5703 38.9867 74.8903 39 75.2103 39C75.557 39 75.877 38.9867 76.1703 38.96C76.4903 38.9067 76.7036 38.8533 76.8103 38.8C76.837 38.7733 76.8103 38.7067 76.7303 38.6C76.677 38.4667 76.6503 38.2667 76.6503 38ZM105.274 47.52C105.328 46.9067 105.341 46.36 105.314 45.88C105.288 45.3733 105.274 44.9333 105.274 44.56C105.194 44.24 105.141 43.92 105.114 43.6C105.088 43.2533 105.048 42.9333 104.994 42.64C104.861 42.2667 104.768 41.8933 104.714 41.52C104.688 41.12 104.608 40.7333 104.474 40.36C104.474 39.96 104.394 39.5867 104.234 39.24C104.101 38.8667 103.848 38.5467 103.474 38.28C103.181 38.1467 102.914 38.0267 102.674 37.92C102.434 37.8133 102.181 37.76 101.914 37.76C101.781 37.84 101.554 37.9733 101.234 38.16C100.941 38.3467 100.728 38.5867 100.594 38.88C100.461 39.2 100.341 39.4933 100.234 39.76C100.154 40 100.061 40.2 99.9544 40.36C99.7944 40.6267 99.7144 40.9467 99.7144 41.32C99.7144 41.6933 99.701 42.0267 99.6744 42.32C99.6744 42.3733 99.661 42.5067 99.6344 42.72C99.6077 42.9067 99.581 43.12 99.5544 43.36C99.5277 43.6 99.501 43.8267 99.4744 44.04C99.4477 44.2267 99.4344 44.3467 99.4344 44.4L99.1144 46.72C99.1144 46.9067 99.101 47.0933 99.0744 47.28C99.0744 47.44 99.0744 47.6133 99.0744 47.8C99.0744 47.9333 99.061 48.0667 99.0344 48.2C99.0077 48.3333 98.9944 48.4667 98.9944 48.6H98.7544C98.4344 48.6533 98.0877 48.68 97.7144 48.68C97.3677 48.68 96.9544 48.6533 96.4744 48.6C96.341 48.5733 96.221 48.5467 96.1144 48.52C96.0344 48.4933 95.9944 48.3467 95.9944 48.08C95.9944 47.76 95.981 47.4667 95.9544 47.2C95.9544 46.9333 95.9544 46.6533 95.9544 46.36C95.981 45.96 95.9944 45.56 95.9944 45.16C95.9944 44.7333 95.9544 44.28 95.8744 43.8C95.8744 43.4533 95.8344 43.08 95.7544 42.68C95.6744 42.28 95.6077 41.8933 95.5544 41.52C95.501 41.1733 95.4744 40.8267 95.4744 40.48C95.4744 40.1067 95.4077 39.7733 95.2744 39.48C95.1944 39.2133 95.101 38.9733 94.9944 38.76C94.9144 38.52 94.8077 38.2667 94.6744 38C94.6477 37.9467 94.621 37.92 94.5944 37.92C94.5677 37.8933 94.541 37.8667 94.5144 37.84L94.2344 37.72C93.941 37.5333 93.581 37.4 93.1544 37.32H92.9944L92.1144 37.44C91.581 37.52 91.1544 37.7067 90.8344 38C90.061 38.7733 89.5544 39.8 89.3144 41.08C89.1544 41.32 89.061 41.5733 89.0344 41.84C89.0077 42.08 88.9677 42.32 88.9144 42.56C88.861 42.8533 88.821 43.16 88.7944 43.48C88.7944 43.7733 88.781 44.0667 88.7544 44.36C88.7544 44.5733 88.7144 44.7867 88.6344 45C88.581 45.2133 88.581 45.4133 88.6344 45.6C88.6344 45.6533 88.621 45.7733 88.5944 45.96C88.5944 46.1467 88.581 46.3467 88.5544 46.56C88.5544 46.7733 88.541 46.9733 88.5144 47.16C88.5144 47.3467 88.5144 47.4667 88.5144 47.52C88.461 47.6267 88.4344 47.84 88.4344 48.16C88.4344 48.48 88.421 48.6667 88.3944 48.72C88.261 48.72 88.101 48.7333 87.9144 48.76C87.7544 48.8133 87.581 48.8667 87.3944 48.92C87.2344 48.9733 87.0477 48.9867 86.8344 48.96C86.621 48.9333 86.421 48.8933 86.2344 48.84C85.8344 48.76 85.541 48.72 85.3544 48.72C85.1677 48.72 84.9277 48.68 84.6344 48.6C84.6344 48.44 84.621 48.24 84.5944 48C84.5944 47.7333 84.5677 47.4667 84.5144 47.2C84.4877 46.9067 84.461 46.6267 84.4344 46.36C84.4344 46.0933 84.4344 45.8933 84.4344 45.76C84.4344 45.68 84.421 45.5467 84.3944 45.36C84.3944 45.1467 84.381 44.9333 84.3544 44.72C84.3544 44.48 84.341 44.2667 84.3144 44.08C84.2877 43.8667 84.2744 43.72 84.2744 43.64C84.2477 43.3733 84.2344 43.1333 84.2344 42.92C84.2344 42.7067 84.2344 42.4667 84.2344 42.2C84.261 41.9333 84.2744 41.68 84.2744 41.44C84.2744 41.2 84.2744 40.96 84.2744 40.72V37.4C84.2744 37.32 84.2744 37.12 84.2744 36.8C84.301 36.4533 84.3144 36.0933 84.3144 35.72C84.341 35.3467 84.3544 35 84.3544 34.68C84.381 34.3333 84.3944 34.12 84.3944 34.04C84.5277 34.04 84.701 34.0267 84.9144 34C85.1277 33.9733 85.301 33.96 85.4344 33.96C85.701 33.96 85.941 33.96 86.1544 33.96C86.3944 33.9333 86.6344 33.92 86.8744 33.92C87.141 33.92 87.2744 33.92 87.2744 33.92C87.2744 33.8933 87.3277 33.8933 87.4344 33.92C87.5144 34.16 87.541 34.32 87.5144 34.4C87.5144 34.4533 87.541 34.5733 87.5944 34.76C87.621 34.8933 87.6477 35.0533 87.6744 35.24C87.7277 35.4267 87.7544 35.5867 87.7544 35.72V35.92C87.9944 35.68 88.2344 35.4933 88.4744 35.36C88.7144 35.2 88.901 35.0533 89.0344 34.92C89.4077 34.6267 89.7944 34.4267 90.1944 34.32C90.5944 34.2133 91.0477 34.12 91.5544 34.04L93.3544 33.84H93.6344C94.0344 33.92 94.3944 34.0133 94.7144 34.12C95.0344 34.2 95.3677 34.3467 95.7144 34.56L96.7144 35.44C96.8744 35.5467 96.981 35.64 97.0344 35.72C97.1677 35.8267 97.2877 35.96 97.3944 36.12C97.5277 36.2533 97.6477 36.4533 97.7544 36.72C97.8877 36.5867 98.0077 36.4667 98.1144 36.36C98.221 36.2267 98.341 36.0933 98.4744 35.96C98.5277 35.9067 98.5944 35.8533 98.6744 35.8C98.781 35.7467 98.901 35.6933 99.0344 35.64C99.2477 35.5067 99.4077 35.4 99.5144 35.32C99.621 35.2133 99.781 35.1067 99.9944 35C100.128 34.9467 100.274 34.8933 100.434 34.84C100.621 34.7867 100.781 34.72 100.914 34.64C101.554 34.3733 102.128 34.32 102.634 34.48C103.168 34.64 103.688 34.7867 104.194 34.92C104.594 35.0533 104.928 35.2533 105.194 35.52C105.488 35.7867 105.768 36.1067 106.034 36.48L106.794 38C106.928 38.4 107.048 38.8 107.154 39.2C107.288 39.5733 107.354 39.96 107.354 40.36C107.461 40.8667 107.568 41.3867 107.674 41.92C107.781 42.4267 107.834 43 107.834 43.64C107.968 44.04 108.008 44.48 107.954 44.96C107.901 45.44 107.941 45.8667 108.074 46.24V48.32C107.808 48.32 107.594 48.36 107.434 48.44C107.301 48.5467 107.088 48.6 106.794 48.6C106.661 48.6 106.488 48.6133 106.274 48.64C106.061 48.6933 105.888 48.7467 105.754 48.8C105.621 48.8 105.501 48.7867 105.394 48.76C105.314 48.76 105.274 48.7067 105.274 48.6V47.52ZM114.926 33.48C115.113 33.4267 115.339 33.3467 115.606 33.24C115.873 33.1333 116.139 33.08 116.406 33.08C116.753 33.08 117.073 33.08 117.366 33.08C117.659 33.0533 117.979 33.04 118.326 33.04C118.593 33.04 118.846 33.0533 119.086 33.08C119.353 33.08 119.593 33.12 119.806 33.2C119.859 33.2 119.926 33.2133 120.006 33.24C120.086 33.2667 120.193 33.3467 120.326 33.48C120.593 33.56 120.846 33.6933 121.086 33.88C121.326 34.0667 121.539 34.2933 121.726 34.56C121.939 34.8267 122.126 35.1067 122.286 35.4C122.473 35.6667 122.633 35.9333 122.766 36.2C122.899 36.4133 122.979 36.6933 123.006 37.04C123.059 37.3867 123.126 37.6667 123.206 37.88C123.206 38.2533 123.219 38.6133 123.246 38.96C123.299 39.3067 123.326 39.6667 123.326 40.04C123.326 40.6533 123.313 41.24 123.286 41.8C123.259 42.36 123.246 42.9467 123.246 43.56L123.166 44.88C123.166 44.9867 123.113 45.1733 123.006 45.44C122.899 45.7067 122.833 45.9067 122.806 46.04C122.726 46.3067 122.619 46.6267 122.486 47C122.353 47.3467 122.259 47.5467 122.206 47.6C122.073 47.7333 121.979 47.8533 121.926 47.96C121.873 48.0667 121.819 48.1733 121.766 48.28C121.739 48.3867 121.686 48.48 121.606 48.56C121.553 48.64 121.446 48.72 121.286 48.8C121.153 48.8533 120.993 48.9333 120.806 49.04C120.619 49.1733 120.446 49.2933 120.286 49.4C120.153 49.4533 120.086 49.4933 120.086 49.52C120.086 49.5733 119.993 49.6267 119.806 49.68L119.086 49.84C118.766 49.8933 118.499 49.9067 118.286 49.88C118.099 49.8533 117.886 49.84 117.646 49.84C116.899 49.84 116.153 49.6933 115.406 49.4C115.166 49.4 114.926 49.3467 114.686 49.24C114.473 49.1333 114.313 49.0133 114.206 48.88C114.073 48.7733 113.939 48.6533 113.806 48.52C113.673 48.4133 113.539 48.2933 113.406 48.16C113.193 47.92 113.019 47.68 112.886 47.44C112.753 47.2 112.619 46.9467 112.486 46.68C112.353 46.3867 112.206 46.0933 112.046 45.8C111.886 45.48 111.779 45.1333 111.726 44.76C111.673 44.1467 111.619 43.5867 111.566 43.08C111.539 42.5733 111.526 42.0667 111.526 41.56V39.92C111.499 39.8667 111.486 39.76 111.486 39.6C111.486 39.44 111.499 39.3333 111.526 39.28C111.526 39.1467 111.526 39.0133 111.526 38.88C111.553 38.72 111.579 38.5733 111.606 38.44C111.633 38.2267 111.646 38.0133 111.646 37.8C111.646 37.5867 111.713 37.3733 111.846 37.16C111.819 37.2133 111.833 37.1733 111.886 37.04C111.966 36.88 112.046 36.72 112.126 36.56C112.206 36.3733 112.273 36.2133 112.326 36.08C112.379 35.9467 112.406 35.8933 112.406 35.92L112.686 35.4C112.766 35.32 112.846 35.2267 112.926 35.12C113.006 35.0133 113.113 34.8933 113.246 34.76C113.406 34.6267 113.606 34.4533 113.846 34.24C114.113 34.0267 114.473 33.7733 114.926 33.48ZM117.846 40.12C117.739 40.12 117.633 40.1733 117.526 40.28C117.446 40.3867 117.393 40.48 117.366 40.56C117.179 40.96 117.086 41.2933 117.086 41.56C117.086 42.28 117.339 42.76 117.846 43C117.979 43 118.086 42.96 118.166 42.88C118.273 42.7733 118.326 42.6667 118.326 42.56C118.326 42.2933 118.353 41.9867 118.406 41.64C118.486 41.2933 118.459 40.9333 118.326 40.56C118.193 40.4267 118.113 40.32 118.086 40.24C118.059 40.16 117.979 40.12 117.846 40.12Z" fill="#FFFAFA"/>
</svg>
